<mxfile host="app.diagrams.net" modified="2022-03-11T12:33:09.088Z" agent="5.0 (Windows NT 10.0; Win64; x64) AppleWebKit/537.36 (KHTML, like Gecko) Chrome/99.0.4844.51 Safari/537.36" etag="8MuD_Dd62Biv4LEs4qL2" version="17.1.0" type="github">
  <diagram id="9ogNmpKNI95pXMgAAAxJ" name="Page-1">
    <mxGraphModel dx="782" dy="394" grid="1" gridSize="10" guides="1" tooltips="1" connect="1" arrows="1" fold="1" page="1" pageScale="1" pageWidth="827" pageHeight="1169" math="0" shadow="0">
      <root>
        <mxCell id="0" />
        <mxCell id="1" parent="0" />
        <mxCell id="Nn06ZeBDF_E19uqjdcnl-84" value="" style="rounded=0;whiteSpace=wrap;html=1;fillColor=#EAFFE9;strokeColor=none;" parent="1" vertex="1">
          <mxGeometry y="490" width="840" height="140" as="geometry" />
        </mxCell>
        <mxCell id="Nn06ZeBDF_E19uqjdcnl-83" value="" style="rounded=0;whiteSpace=wrap;html=1;fillColor=#FFE6CC;strokeColor=none;" parent="1" vertex="1">
          <mxGeometry y="250" width="840" height="240" as="geometry" />
        </mxCell>
        <mxCell id="Nn06ZeBDF_E19uqjdcnl-82" value="" style="rounded=0;whiteSpace=wrap;html=1;fontColor=#EA6B66;fillColor=#FFFEEB;strokeColor=none;" parent="1" vertex="1">
          <mxGeometry width="840" height="250" as="geometry" />
        </mxCell>
        <mxCell id="Nn06ZeBDF_E19uqjdcnl-1" value="&lt;b&gt;Version Control System&lt;br&gt;&lt;i&gt;&lt;font color=&quot;#ea6b66&quot;&gt;Git&lt;/font&gt;&lt;/i&gt;&lt;/b&gt;" style="rounded=1;whiteSpace=wrap;html=1;fillColor=#fff2cc;strokeColor=none;" parent="1" vertex="1">
          <mxGeometry x="386" y="78" width="120" height="60" as="geometry" />
        </mxCell>
        <mxCell id="Nn06ZeBDF_E19uqjdcnl-5" value="&lt;b&gt;Source Code&lt;br&gt;&lt;i&gt;&lt;font color=&quot;#ea6b66&quot;&gt;Git Hub&lt;/font&gt;&lt;/i&gt;&lt;/b&gt;" style="rounded=1;whiteSpace=wrap;html=1;fillColor=#fff2cc;strokeColor=none;" parent="1" vertex="1">
          <mxGeometry x="126" y="78" width="120" height="60" as="geometry" />
        </mxCell>
        <mxCell id="Nn06ZeBDF_E19uqjdcnl-6" value="&lt;b&gt;Project Tracking&lt;br&gt;&lt;i&gt;&lt;font color=&quot;#ea6b66&quot;&gt;Jira&lt;/font&gt;&lt;/i&gt;&lt;/b&gt;" style="rounded=1;whiteSpace=wrap;html=1;fillColor=#fff2cc;strokeColor=none;" parent="1" vertex="1">
          <mxGeometry x="647" y="78" width="120" height="60" as="geometry" />
        </mxCell>
        <mxCell id="Nn06ZeBDF_E19uqjdcnl-10" value="" style="shape=image;verticalLabelPosition=bottom;labelBackgroundColor=default;verticalAlign=top;aspect=fixed;imageAspect=0;image=https://wac-cdn-2.atlassian.com/image/upload/f_auto,q_auto/dam/jcr:b544631f-b225-441b-9e05-57b7fd0d495b/Jira%20Software@2x-icon-blue.png;" parent="1" vertex="1">
          <mxGeometry x="737" y="107.18" width="40" height="41.63" as="geometry" />
        </mxCell>
        <mxCell id="Nn06ZeBDF_E19uqjdcnl-13" value="" style="endArrow=classic;html=1;rounded=0;fontColor=#EA6B66;entryX=0;entryY=0.75;entryDx=0;entryDy=0;exitX=1;exitY=0.75;exitDx=0;exitDy=0;strokeColor=#7EA6E0;" parent="1" source="Nn06ZeBDF_E19uqjdcnl-5" target="Nn06ZeBDF_E19uqjdcnl-1" edge="1">
          <mxGeometry width="50" height="50" relative="1" as="geometry">
            <mxPoint x="246" y="98" as="sourcePoint" />
            <mxPoint x="296" y="48" as="targetPoint" />
          </mxGeometry>
        </mxCell>
        <mxCell id="Nn06ZeBDF_E19uqjdcnl-14" value="" style="endArrow=classic;html=1;rounded=0;fontColor=#EA6B66;entryX=0;entryY=0.75;entryDx=0;entryDy=0;exitX=1;exitY=0.75;exitDx=0;exitDy=0;strokeColor=#67AB9F;" parent="1" source="Nn06ZeBDF_E19uqjdcnl-1" target="Nn06ZeBDF_E19uqjdcnl-6" edge="1">
          <mxGeometry width="50" height="50" relative="1" as="geometry">
            <mxPoint x="516" y="123" as="sourcePoint" />
            <mxPoint x="646" y="88" as="targetPoint" />
          </mxGeometry>
        </mxCell>
        <mxCell id="Nn06ZeBDF_E19uqjdcnl-4" value="" style="shape=image;verticalLabelPosition=bottom;labelBackgroundColor=default;verticalAlign=top;aspect=fixed;imageAspect=0;image=http://assets.stickpng.com/images/5847f981cef1014c0b5e48be.png;" parent="1" vertex="1">
          <mxGeometry x="473" y="108" width="40" height="40" as="geometry" />
        </mxCell>
        <mxCell id="Nn06ZeBDF_E19uqjdcnl-15" value="" style="endArrow=classic;html=1;rounded=0;fontColor=#EA6B66;exitX=0;exitY=0.25;exitDx=0;exitDy=0;entryX=1;entryY=0.25;entryDx=0;entryDy=0;strokeColor=#67AB9F;" parent="1" source="Nn06ZeBDF_E19uqjdcnl-1" target="Nn06ZeBDF_E19uqjdcnl-5" edge="1">
          <mxGeometry width="50" height="50" relative="1" as="geometry">
            <mxPoint x="426" y="238" as="sourcePoint" />
            <mxPoint x="476" y="188" as="targetPoint" />
          </mxGeometry>
        </mxCell>
        <mxCell id="Nn06ZeBDF_E19uqjdcnl-16" value="" style="endArrow=classic;html=1;rounded=0;fontColor=#EA6B66;exitX=0;exitY=0.25;exitDx=0;exitDy=0;entryX=1;entryY=0.25;entryDx=0;entryDy=0;strokeColor=#7EA6E0;" parent="1" source="Nn06ZeBDF_E19uqjdcnl-6" target="Nn06ZeBDF_E19uqjdcnl-1" edge="1">
          <mxGeometry width="50" height="50" relative="1" as="geometry">
            <mxPoint x="426" y="238" as="sourcePoint" />
            <mxPoint x="476" y="188" as="targetPoint" />
          </mxGeometry>
        </mxCell>
        <mxCell id="Nn06ZeBDF_E19uqjdcnl-17" value="&lt;font color=&quot;#67ab9f&quot;&gt;&lt;b&gt;Pull&lt;/b&gt;&lt;/font&gt;" style="text;html=1;strokeColor=none;fillColor=none;align=center;verticalAlign=middle;whiteSpace=wrap;rounded=0;fontColor=#EA6B66;" parent="1" vertex="1">
          <mxGeometry x="286" y="63" width="60" height="30" as="geometry" />
        </mxCell>
        <mxCell id="Nn06ZeBDF_E19uqjdcnl-21" value="&lt;b&gt;&lt;font color=&quot;#7ea6e0&quot;&gt;Push&lt;/font&gt;&lt;/b&gt;" style="text;html=1;strokeColor=none;fillColor=none;align=center;verticalAlign=middle;whiteSpace=wrap;rounded=0;fontColor=#EA6B66;" parent="1" vertex="1">
          <mxGeometry x="286" y="124" width="60" height="30" as="geometry" />
        </mxCell>
        <mxCell id="Nn06ZeBDF_E19uqjdcnl-7" value="" style="shape=image;verticalLabelPosition=bottom;labelBackgroundColor=default;verticalAlign=top;aspect=fixed;imageAspect=0;image=https://upload.wikimedia.org/wikipedia/commons/thumb/9/91/Octicons-mark-github.svg/2048px-Octicons-mark-github.svg.png;" parent="1" vertex="1">
          <mxGeometry x="214" y="108" width="40" height="40" as="geometry" />
        </mxCell>
        <mxCell id="Nn06ZeBDF_E19uqjdcnl-22" value="&lt;b&gt;&lt;font color=&quot;#7ea6e0&quot;&gt;Get tasks&lt;/font&gt;&lt;/b&gt;" style="text;html=1;strokeColor=none;fillColor=none;align=center;verticalAlign=middle;whiteSpace=wrap;rounded=0;fontColor=#EA6B66;" parent="1" vertex="1">
          <mxGeometry x="546" y="63" width="60" height="30" as="geometry" />
        </mxCell>
        <mxCell id="Nn06ZeBDF_E19uqjdcnl-23" value="&lt;font color=&quot;#67ab9f&quot;&gt;&lt;b&gt;Update progress&lt;/b&gt;&lt;/font&gt;" style="text;html=1;strokeColor=none;fillColor=none;align=center;verticalAlign=middle;whiteSpace=wrap;rounded=0;fontColor=#EA6B66;" parent="1" vertex="1">
          <mxGeometry x="546" y="124" width="60" height="30" as="geometry" />
        </mxCell>
        <mxCell id="Nn06ZeBDF_E19uqjdcnl-24" value="&lt;b&gt;CI Server&lt;br&gt;&lt;font color=&quot;#ea6b66&quot;&gt;&lt;i&gt;Jenkins&lt;/i&gt;&lt;/font&gt;&lt;br&gt;&lt;/b&gt;" style="rounded=1;whiteSpace=wrap;html=1;fillColor=#FFCE9F;strokeColor=none;" parent="1" vertex="1">
          <mxGeometry x="386" y="327" width="120" height="60" as="geometry" />
        </mxCell>
        <mxCell id="Nn06ZeBDF_E19uqjdcnl-27" value="" style="endArrow=classic;html=1;rounded=0;fontColor=#7EA6E0;strokeColor=#67AB9F;exitX=0.75;exitY=1;exitDx=0;exitDy=0;entryX=0.75;entryY=0;entryDx=0;entryDy=0;" parent="1" source="Nn06ZeBDF_E19uqjdcnl-1" target="Nn06ZeBDF_E19uqjdcnl-24" edge="1">
          <mxGeometry width="50" height="50" relative="1" as="geometry">
            <mxPoint x="426" y="260" as="sourcePoint" />
            <mxPoint x="476" y="210" as="targetPoint" />
          </mxGeometry>
        </mxCell>
        <mxCell id="Nn06ZeBDF_E19uqjdcnl-28" value="&lt;b&gt;Unit Testing&lt;br&gt;&lt;font color=&quot;#ea6b66&quot;&gt;&lt;i&gt;pytest&lt;/i&gt;&lt;/font&gt;&lt;br&gt;&lt;/b&gt;" style="rounded=1;whiteSpace=wrap;html=1;fillColor=#FFCE9F;strokeColor=none;" parent="1" vertex="1">
          <mxGeometry x="619" y="258" width="120" height="60" as="geometry" />
        </mxCell>
        <mxCell id="Nn06ZeBDF_E19uqjdcnl-29" value="&lt;b&gt;Build&lt;br&gt;&lt;font color=&quot;#ea6b66&quot;&gt;&lt;i&gt;Docker &lt;br&gt;Compose&lt;/i&gt;&lt;/font&gt;&lt;br&gt;&lt;/b&gt;" style="rounded=1;whiteSpace=wrap;html=1;fillColor=#FFCE9F;strokeColor=none;" parent="1" vertex="1">
          <mxGeometry x="619" y="398" width="120" height="60" as="geometry" />
        </mxCell>
        <mxCell id="Nn06ZeBDF_E19uqjdcnl-33" value="" style="shape=image;verticalLabelPosition=bottom;labelBackgroundColor=default;verticalAlign=top;aspect=fixed;imageAspect=0;image=https://res.cloudinary.com/practicaldev/image/fetch/s--i7Xi1ubv--/c_imagga_scale,f_auto,fl_progressive,h_900,q_auto,w_1600/https://dev-to-uploads.s3.amazonaws.com/i/ls1nn7bpt6xfxtm6vbam.png;clipPath=inset(10.95% 16% 48.22% 62.67%);" parent="1" vertex="1">
          <mxGeometry x="710" y="288" width="40" height="43.13" as="geometry" />
        </mxCell>
        <mxCell id="Nn06ZeBDF_E19uqjdcnl-35" value="" style="shape=image;verticalLabelPosition=bottom;labelBackgroundColor=default;verticalAlign=top;aspect=fixed;imageAspect=0;image=https://www.docker.com/blog/wp-content/uploads/2020/02/Compose.png;" parent="1" vertex="1">
          <mxGeometry x="710" y="428" width="40" height="43.8" as="geometry" />
        </mxCell>
        <mxCell id="Nn06ZeBDF_E19uqjdcnl-39" value="&lt;font color=&quot;#67ab9f&quot;&gt;&lt;b&gt;New code&lt;br&gt;push&lt;br&gt;&lt;/b&gt;&lt;/font&gt;" style="text;html=1;strokeColor=none;fillColor=none;align=center;verticalAlign=middle;whiteSpace=wrap;rounded=0;fontColor=#EA6B66;" parent="1" vertex="1">
          <mxGeometry x="486" y="210" width="60" height="30" as="geometry" />
        </mxCell>
        <mxCell id="Nn06ZeBDF_E19uqjdcnl-25" value="" style="shape=image;verticalLabelPosition=bottom;labelBackgroundColor=default;verticalAlign=top;aspect=fixed;imageAspect=0;image=https://upload.wikimedia.org/wikipedia/commons/thumb/e/e9/Jenkins_logo.svg/1200px-Jenkins_logo.svg.png;" parent="1" vertex="1">
          <mxGeometry x="469.75" y="352" width="36.25" height="50" as="geometry" />
        </mxCell>
        <mxCell id="Nn06ZeBDF_E19uqjdcnl-54" value="&lt;b&gt;Artifact Repository&lt;br&gt;&lt;font color=&quot;#ea6b66&quot;&gt;&lt;i&gt;Jenkins&lt;/i&gt;&lt;/font&gt;&lt;br&gt;&lt;/b&gt;" style="rounded=1;whiteSpace=wrap;html=1;fillColor=#FFCE9F;strokeColor=none;" parent="1" vertex="1">
          <mxGeometry x="126" y="398" width="120" height="60" as="geometry" />
        </mxCell>
        <mxCell id="Nn06ZeBDF_E19uqjdcnl-55" value="&lt;b&gt;Reports&lt;br&gt;&lt;font color=&quot;#ea6b66&quot;&gt;&lt;i&gt;Jenkins&lt;/i&gt;&lt;/font&gt;&lt;br&gt;&lt;/b&gt;" style="rounded=1;whiteSpace=wrap;html=1;fillColor=#FFCE9F;strokeColor=none;" parent="1" vertex="1">
          <mxGeometry x="126" y="256" width="120" height="60" as="geometry" />
        </mxCell>
        <mxCell id="Nn06ZeBDF_E19uqjdcnl-57" value="" style="endArrow=classic;html=1;rounded=0;fontColor=#EA6B66;strokeColor=#EA6B66;exitX=0;exitY=0.25;exitDx=0;exitDy=0;entryX=1;entryY=0.5;entryDx=0;entryDy=0;" parent="1" source="Nn06ZeBDF_E19uqjdcnl-24" target="Nn06ZeBDF_E19uqjdcnl-55" edge="1">
          <mxGeometry width="50" height="50" relative="1" as="geometry">
            <mxPoint x="386" y="378" as="sourcePoint" />
            <mxPoint x="266" y="308" as="targetPoint" />
            <Array as="points">
              <mxPoint x="286" y="342" />
              <mxPoint x="286" y="286" />
            </Array>
          </mxGeometry>
        </mxCell>
        <mxCell id="Nn06ZeBDF_E19uqjdcnl-59" value="" style="endArrow=classic;html=1;rounded=0;fontColor=#EA6B66;strokeColor=#FFB570;entryX=1;entryY=0.75;entryDx=0;entryDy=0;exitX=0;exitY=0.5;exitDx=0;exitDy=0;" parent="1" target="Nn06ZeBDF_E19uqjdcnl-24" edge="1" source="Nn06ZeBDF_E19uqjdcnl-29">
          <mxGeometry width="50" height="50" relative="1" as="geometry">
            <mxPoint x="620" y="428" as="sourcePoint" />
            <mxPoint x="506" y="378" as="targetPoint" />
            <Array as="points">
              <mxPoint x="566" y="428" />
              <mxPoint x="566" y="372" />
            </Array>
          </mxGeometry>
        </mxCell>
        <mxCell id="Nn06ZeBDF_E19uqjdcnl-60" value="" style="endArrow=classic;html=1;rounded=0;fontColor=#EA6B66;strokeColor=#EA6B66;exitX=1;exitY=0.5;exitDx=0;exitDy=0;entryX=0;entryY=0.25;entryDx=0;entryDy=0;" parent="1" source="Nn06ZeBDF_E19uqjdcnl-24" edge="1" target="Nn06ZeBDF_E19uqjdcnl-29">
          <mxGeometry width="50" height="50" relative="1" as="geometry">
            <mxPoint x="506" y="351" as="sourcePoint" />
            <mxPoint x="630" y="413" as="targetPoint" />
            <Array as="points">
              <mxPoint x="606" y="358" />
              <mxPoint x="606" y="413" />
            </Array>
          </mxGeometry>
        </mxCell>
        <mxCell id="Nn06ZeBDF_E19uqjdcnl-61" value="" style="endArrow=classic;html=1;rounded=0;fontColor=#EA6B66;strokeColor=#EA6B66;entryX=0;entryY=0.75;entryDx=0;entryDy=0;" parent="1" target="Nn06ZeBDF_E19uqjdcnl-28" edge="1">
          <mxGeometry width="50" height="50" relative="1" as="geometry">
            <mxPoint x="506" y="358" as="sourcePoint" />
            <mxPoint x="436" y="328" as="targetPoint" />
            <Array as="points">
              <mxPoint x="606" y="358" />
              <mxPoint x="606" y="303" />
            </Array>
          </mxGeometry>
        </mxCell>
        <mxCell id="Nn06ZeBDF_E19uqjdcnl-62" value="" style="endArrow=classic;html=1;rounded=0;fontColor=#EA6B66;strokeColor=#FFB570;exitX=0;exitY=0.5;exitDx=0;exitDy=0;entryX=1;entryY=0.25;entryDx=0;entryDy=0;" parent="1" source="Nn06ZeBDF_E19uqjdcnl-28" target="Nn06ZeBDF_E19uqjdcnl-24" edge="1">
          <mxGeometry width="50" height="50" relative="1" as="geometry">
            <mxPoint x="386" y="378" as="sourcePoint" />
            <mxPoint x="436" y="328" as="targetPoint" />
            <Array as="points">
              <mxPoint x="566" y="288" />
              <mxPoint x="566" y="342" />
            </Array>
          </mxGeometry>
        </mxCell>
        <mxCell id="Nn06ZeBDF_E19uqjdcnl-63" value="" style="endArrow=classic;html=1;rounded=0;fontColor=#EA6B66;strokeColor=#EA6B66;exitX=0;exitY=0.75;exitDx=0;exitDy=0;entryX=1;entryY=0.5;entryDx=0;entryDy=0;" parent="1" source="Nn06ZeBDF_E19uqjdcnl-24" target="Nn06ZeBDF_E19uqjdcnl-54" edge="1">
          <mxGeometry width="50" height="50" relative="1" as="geometry">
            <mxPoint x="386" y="378" as="sourcePoint" />
            <mxPoint x="436" y="328" as="targetPoint" />
            <Array as="points">
              <mxPoint x="286" y="372" />
              <mxPoint x="286" y="428" />
            </Array>
          </mxGeometry>
        </mxCell>
        <mxCell id="Nn06ZeBDF_E19uqjdcnl-64" value="&lt;b&gt;Send&lt;br&gt;Code&lt;br&gt;&lt;/b&gt;" style="text;html=1;strokeColor=none;fillColor=none;align=center;verticalAlign=middle;whiteSpace=wrap;rounded=0;fontColor=#EA6B66;" parent="1" vertex="1">
          <mxGeometry x="606" y="342" width="60" height="30" as="geometry" />
        </mxCell>
        <mxCell id="Nn06ZeBDF_E19uqjdcnl-65" value="&lt;b&gt;&lt;font color=&quot;#ffb570&quot;&gt;Test&lt;br&gt;Results&lt;/font&gt;&lt;br&gt;&lt;/b&gt;" style="text;html=1;strokeColor=none;fillColor=none;align=center;verticalAlign=middle;whiteSpace=wrap;rounded=0;fontColor=#EA6B66;" parent="1" vertex="1">
          <mxGeometry x="509.75" y="301.13" width="60" height="30" as="geometry" />
        </mxCell>
        <mxCell id="Nn06ZeBDF_E19uqjdcnl-66" value="&lt;b&gt;&lt;font color=&quot;#ffb570&quot;&gt;Build&lt;br&gt;Results&lt;/font&gt;&lt;br&gt;&lt;/b&gt;" style="text;html=1;strokeColor=none;fillColor=none;align=center;verticalAlign=middle;whiteSpace=wrap;rounded=0;fontColor=#EA6B66;" parent="1" vertex="1">
          <mxGeometry x="506" y="387" width="60" height="30" as="geometry" />
        </mxCell>
        <mxCell id="Nn06ZeBDF_E19uqjdcnl-67" value="&lt;b&gt;Build &amp;amp; Test&lt;br&gt;Report&lt;br&gt;&lt;/b&gt;" style="text;html=1;strokeColor=none;fillColor=none;align=center;verticalAlign=middle;whiteSpace=wrap;rounded=0;fontColor=#EA6B66;" parent="1" vertex="1">
          <mxGeometry x="293" y="312" width="90" height="30" as="geometry" />
        </mxCell>
        <mxCell id="Nn06ZeBDF_E19uqjdcnl-68" value="&lt;b&gt;Send&lt;br&gt;Artifact&lt;br&gt;&lt;/b&gt;" style="text;html=1;strokeColor=none;fillColor=none;align=center;verticalAlign=middle;whiteSpace=wrap;rounded=0;fontColor=#EA6B66;" parent="1" vertex="1">
          <mxGeometry x="293" y="372" width="90" height="30" as="geometry" />
        </mxCell>
        <mxCell id="Nn06ZeBDF_E19uqjdcnl-71" value="" style="endArrow=classic;html=1;rounded=0;fontColor=#FFB570;strokeColor=#EA6B66;entryX=0;entryY=0.5;entryDx=0;entryDy=0;exitX=1;exitY=0.25;exitDx=0;exitDy=0;" parent="1" source="Nn06ZeBDF_E19uqjdcnl-55" target="Nn06ZeBDF_E19uqjdcnl-70" edge="1">
          <mxGeometry width="50" height="50" relative="1" as="geometry">
            <mxPoint x="276" y="250" as="sourcePoint" />
            <mxPoint x="436" y="310" as="targetPoint" />
            <Array as="points">
              <mxPoint x="276" y="271" />
              <mxPoint x="276" y="218" />
            </Array>
          </mxGeometry>
        </mxCell>
        <mxCell id="Nn06ZeBDF_E19uqjdcnl-72" value="" style="endArrow=classic;html=1;rounded=0;fontColor=#FFB570;strokeColor=#7EA6E0;entryX=0.25;entryY=1;entryDx=0;entryDy=0;exitX=0.75;exitY=0;exitDx=0;exitDy=0;" parent="1" source="Nn06ZeBDF_E19uqjdcnl-70" target="Nn06ZeBDF_E19uqjdcnl-1" edge="1">
          <mxGeometry width="50" height="50" relative="1" as="geometry">
            <mxPoint x="416" y="240" as="sourcePoint" />
            <mxPoint x="436" y="210" as="targetPoint" />
          </mxGeometry>
        </mxCell>
        <mxCell id="Nn06ZeBDF_E19uqjdcnl-70" value="&lt;font color=&quot;#ea6b66&quot;&gt;Devolopment &lt;br&gt;Team&lt;/font&gt;" style="rounded=1;whiteSpace=wrap;html=1;fillColor=#FFCCCC;strokeColor=none;" parent="1" vertex="1">
          <mxGeometry x="341" y="198" width="100" height="40" as="geometry" />
        </mxCell>
        <mxCell id="Nn06ZeBDF_E19uqjdcnl-73" value="&lt;b&gt;Deploy&lt;br&gt;&lt;i&gt;&lt;font color=&quot;#ea6b66&quot;&gt;Docker Swarm&lt;/font&gt;&lt;/i&gt;&lt;br&gt;&lt;/b&gt;" style="rounded=1;whiteSpace=wrap;html=1;fillColor=#D5E8D4;strokeColor=none;" parent="1" vertex="1">
          <mxGeometry x="321" y="520" width="120" height="60" as="geometry" />
        </mxCell>
        <mxCell id="Nn06ZeBDF_E19uqjdcnl-74" value="" style="endArrow=classic;html=1;rounded=0;fontColor=#EA6B66;strokeColor=#EA6B66;exitX=0.5;exitY=1;exitDx=0;exitDy=0;entryX=0;entryY=0.5;entryDx=0;entryDy=0;" parent="1" source="Nn06ZeBDF_E19uqjdcnl-54" target="Nn06ZeBDF_E19uqjdcnl-73" edge="1">
          <mxGeometry width="50" height="50" relative="1" as="geometry">
            <mxPoint x="386" y="560" as="sourcePoint" />
            <mxPoint x="436" y="510" as="targetPoint" />
            <Array as="points">
              <mxPoint x="186" y="550" />
            </Array>
          </mxGeometry>
        </mxCell>
        <mxCell id="Nn06ZeBDF_E19uqjdcnl-75" value="" style="shape=image;verticalLabelPosition=bottom;labelBackgroundColor=default;verticalAlign=top;aspect=fixed;imageAspect=0;image=https://upload.wikimedia.org/wikipedia/commons/thumb/e/e9/Jenkins_logo.svg/1200px-Jenkins_logo.svg.png;" parent="1" vertex="1">
          <mxGeometry x="167.88" y="530" width="36.25" height="50" as="geometry" />
        </mxCell>
        <mxCell id="Nn06ZeBDF_E19uqjdcnl-77" value="" style="shape=image;verticalLabelPosition=bottom;labelBackgroundColor=default;verticalAlign=top;aspect=fixed;imageAspect=0;image=https://raw.githubusercontent.com/docker-library/docs/471fa6e4cb58062ccbf91afc111980f9c7004981/swarm/logo.png;" parent="1" vertex="1">
          <mxGeometry x="415" y="554" width="48.08" height="40" as="geometry" />
        </mxCell>
        <mxCell id="Nn06ZeBDF_E19uqjdcnl-79" value="&lt;b&gt;Live Environment&lt;br&gt;&lt;font color=&quot;#ea6b66&quot;&gt;&lt;i&gt;Azure Cloud&lt;/i&gt;&lt;/font&gt;&lt;br&gt;&lt;/b&gt;" style="rounded=1;whiteSpace=wrap;html=1;fillColor=#D5E8D4;strokeColor=none;" parent="1" vertex="1">
          <mxGeometry x="647" y="520" width="120" height="60" as="geometry" />
        </mxCell>
        <mxCell id="Nn06ZeBDF_E19uqjdcnl-80" value="" style="shape=image;verticalLabelPosition=bottom;labelBackgroundColor=default;verticalAlign=top;aspect=fixed;imageAspect=0;image=https://logos-world.net/wp-content/uploads/2021/05/Azure-Logo-700x394.png;" parent="1" vertex="1">
          <mxGeometry x="721.51" y="554" width="70.99" height="40" as="geometry" />
        </mxCell>
        <mxCell id="Nn06ZeBDF_E19uqjdcnl-81" value="" style="endArrow=classic;html=1;rounded=0;fontColor=#EA6B66;strokeColor=#67AB9F;exitX=1;exitY=0.5;exitDx=0;exitDy=0;" parent="1" source="Nn06ZeBDF_E19uqjdcnl-73" edge="1">
          <mxGeometry width="50" height="50" relative="1" as="geometry">
            <mxPoint x="416" y="460" as="sourcePoint" />
            <mxPoint x="646" y="550" as="targetPoint" />
          </mxGeometry>
        </mxCell>
        <mxCell id="kEdnQUo0eRYwjTfytwZf-2" value="&lt;b&gt;&lt;font style=&quot;font-size: 16px&quot; color=&quot;#ffb570&quot;&gt;The CI Pipeline&lt;/font&gt;&lt;/b&gt;" style="rounded=1;whiteSpace=wrap;html=1;fillColor=#fff2cc;strokeColor=none;rotation=-90;" vertex="1" parent="1">
          <mxGeometry x="-195" y="215" width="470" height="60" as="geometry" />
        </mxCell>
        <mxCell id="kEdnQUo0eRYwjTfytwZf-4" value="&lt;b style=&quot;font-size: 16px&quot;&gt;&lt;font color=&quot;#67ab9f&quot;&gt;CD&lt;/font&gt;&lt;br&gt;&lt;/b&gt;" style="rounded=1;whiteSpace=wrap;html=1;fillColor=#D5E8D4;strokeColor=none;rotation=-90;" vertex="1" parent="1">
          <mxGeometry x="-17.5" y="530" width="115" height="60" as="geometry" />
        </mxCell>
        <mxCell id="kEdnQUo0eRYwjTfytwZf-6" value="&lt;b&gt;Image Repo&lt;/b&gt;&lt;br&gt;&lt;i&gt;&lt;font color=&quot;#ea6b66&quot;&gt;Docker Hub&lt;/font&gt;&lt;/i&gt;" style="rounded=1;whiteSpace=wrap;html=1;fillColor=#b1ddf0;strokeColor=none;" vertex="1" parent="1">
          <mxGeometry x="386" y="433" width="100" height="40" as="geometry" />
        </mxCell>
        <mxCell id="Nn06ZeBDF_E19uqjdcnl-69" value="" style="shape=image;verticalLabelPosition=bottom;labelBackgroundColor=default;verticalAlign=top;aspect=fixed;imageAspect=0;image=https://about.gitlab.com/images/devops-tools/docker-hub-logo.png;" parent="1" vertex="1">
          <mxGeometry x="469.75" y="453.12" width="40" height="31.88" as="geometry" />
        </mxCell>
        <mxCell id="kEdnQUo0eRYwjTfytwZf-7" value="" style="endArrow=classic;html=1;rounded=0;fontSize=10;fontColor=#EA6B66;strokeColor=#FFB570;exitX=0;exitY=0.75;exitDx=0;exitDy=0;entryX=1;entryY=0.25;entryDx=0;entryDy=0;" edge="1" parent="1" source="Nn06ZeBDF_E19uqjdcnl-29" target="kEdnQUo0eRYwjTfytwZf-6">
          <mxGeometry width="50" height="50" relative="1" as="geometry">
            <mxPoint x="440" y="430" as="sourcePoint" />
            <mxPoint x="500" y="440" as="targetPoint" />
          </mxGeometry>
        </mxCell>
        <mxCell id="kEdnQUo0eRYwjTfytwZf-8" value="&lt;b&gt;&lt;font color=&quot;#ffb570&quot;&gt;Push&lt;/font&gt;&lt;br&gt;&lt;/b&gt;" style="text;html=1;strokeColor=none;fillColor=none;align=center;verticalAlign=middle;whiteSpace=wrap;rounded=0;fontColor=#EA6B66;" vertex="1" parent="1">
          <mxGeometry x="530" y="443" width="60" height="30" as="geometry" />
        </mxCell>
        <mxCell id="kEdnQUo0eRYwjTfytwZf-9" value="" style="endArrow=classic;html=1;rounded=0;fontSize=10;fontColor=#EA6B66;strokeColor=#67AB9F;exitX=0.25;exitY=1;exitDx=0;exitDy=0;entryX=0.75;entryY=0;entryDx=0;entryDy=0;" edge="1" parent="1" source="kEdnQUo0eRYwjTfytwZf-6" target="Nn06ZeBDF_E19uqjdcnl-73">
          <mxGeometry width="50" height="50" relative="1" as="geometry">
            <mxPoint x="470" y="530" as="sourcePoint" />
            <mxPoint x="520" y="480" as="targetPoint" />
          </mxGeometry>
        </mxCell>
      </root>
    </mxGraphModel>
  </diagram>
</mxfile>
